<svg width="180" height="53" viewBox="0 0 180 53" fill="none" xmlns="http://www.w3.org/2000/svg">
  <path d="M173.333 53H6.66676C3.00002 53 0 50.0188 0 46.375V6.625C0 2.98123 3.00002 0 6.66676 0H173.333C177 0 180 2.98123 180 6.625V46.375C180 50.0188 177 53 173.333 53Z" fill="#100F0D" />
  <path d="M173.333 0H6.66676C3.00002 0 0 2.98123 0 6.625V46.375C0 50.0188 3.00002 53 6.66676 53H173.333C177 53 180 50.0188 180 46.375V6.625C180 2.98123 177 0 173.333 0ZM173.333 1.05946C176.421 1.05946 178.933 3.55632 178.933 6.625V46.375C178.933 49.4437 176.421 51.9405 173.333 51.9405H6.66676C3.57874 51.9405 1.06724 49.4437 1.06724 46.375V6.625C1.06724 3.55632 3.57874 1.05946 6.66676 1.05946H173.333Z" fill="#A2A2A1" />
  <path d="M142.58 40H145.068V23.331H142.58V40ZM164.989 29.336L162.137 36.5624H162.052L159.092 29.336H156.412L160.852 39.436L158.32 45.0545H160.915L167.756 29.3365L164.989 29.336ZM150.879 38.1066C150.066 38.1066 148.928 37.6988 148.928 36.691C148.928 35.4045 150.344 34.9113 151.566 34.9113C152.659 34.9113 153.175 35.1468 153.839 35.4687C153.646 37.0129 152.316 38.1066 150.879 38.1066ZM151.18 28.9714C149.379 28.9714 147.514 29.7651 146.742 31.5235L148.95 32.4454C149.422 31.5235 150.3 31.2236 151.223 31.2236C152.51 31.2236 153.818 31.9949 153.839 33.3678V33.5391C153.388 33.2818 152.423 32.8959 151.244 32.8959C148.863 32.8959 146.44 34.2036 146.44 36.6483C146.44 38.8785 148.392 40.3154 150.579 40.3154C152.251 40.3154 153.175 39.5649 153.752 38.6853H153.839V39.9727H156.241V33.5817C156.241 30.6224 154.031 28.9714 151.18 28.9714ZM135.804 31.3651H132.266V25.6518H135.804C137.664 25.6518 138.72 27.1914 138.72 28.5084C138.72 29.8001 137.664 31.3651 135.804 31.3651ZM135.74 23.3314H129.779V40.0004H132.266V33.6855H135.74C138.498 33.6855 141.208 31.6897 141.208 28.509C141.208 25.3289 138.498 23.3314 135.74 23.3314ZM103.233 38.1094C101.514 38.1094 100.076 36.6698 100.076 34.6944C100.076 32.696 101.514 31.2361 103.233 31.2361C104.93 31.2361 106.262 32.6961 106.262 34.6944C106.262 36.6698 104.93 38.1094 103.233 38.1094ZM106.09 30.2691H106.004C105.446 29.6034 104.371 29.0019 103.019 29.0019C100.183 29.0019 97.5839 31.494 97.5839 34.6944C97.5839 37.873 100.183 40.3432 103.019 40.3432C104.371 40.3432 105.446 39.7416 106.004 39.0547H106.09V39.8703C106.09 42.0406 104.93 43.1999 103.061 43.1999C101.537 43.1999 100.592 42.1046 100.205 41.1811L98.0356 42.0832C98.658 43.5862 100.311 45.4342 103.061 45.4342C105.983 45.4342 108.453 43.7154 108.453 39.5265V29.3455H106.09L106.09 30.2691ZM110.172 39.9995H112.663V23.3305H110.172V39.9995ZM116.336 34.5007C116.272 32.3096 118.034 31.1929 119.301 31.1929C120.289 31.1929 121.126 31.6872 121.406 32.3955L116.336 34.5007ZM124.069 32.6101C123.596 31.3435 122.157 29.0019 119.215 29.0019C116.293 29.0019 113.866 31.3002 113.866 34.6726C113.866 37.8517 116.272 40.3433 119.493 40.3433C122.092 40.3433 123.596 38.7543 124.22 37.8303L122.286 36.5413C121.642 37.4866 120.762 38.1095 119.493 38.1095C118.227 38.1095 117.324 37.5294 116.745 36.3909L124.327 33.255L124.069 32.6101ZM63.6598 30.7419V33.1476H69.4163C69.2444 34.5008 68.7934 35.4887 68.1059 36.1762C67.2679 37.0137 65.9576 37.9376 63.6597 37.9376C60.1154 37.9376 57.3447 35.0809 57.3447 31.5367C57.3447 27.9925 60.1154 25.1354 63.6597 25.1354C65.5715 25.1354 66.9674 25.8874 67.9985 26.854L69.6959 25.1567C68.2563 23.7822 66.3449 22.7297 63.6597 22.7297C58.8045 22.7297 54.7234 26.6821 54.7234 31.5367C54.7234 36.3908 58.8045 40.3433 63.6597 40.3433C66.2799 40.3433 68.2564 39.484 69.8027 37.8731C71.3923 36.2835 71.8865 34.0497 71.8865 32.2451C71.8865 31.6873 71.8432 31.1717 71.7573 30.7419H63.6598ZM78.4318 38.1094C76.713 38.1094 75.2308 36.6917 75.2308 34.6726C75.2308 32.632 76.713 31.2362 78.4318 31.2362C80.1499 31.2362 81.6321 32.632 81.6321 34.6726C81.6321 36.6917 80.1499 38.1094 78.4318 38.1094ZM78.4318 29.0019C75.2948 29.0019 72.7391 31.3861 72.7391 34.6726C72.7391 37.9376 75.2948 40.3433 78.4318 40.3433C81.5676 40.3433 84.1238 37.9376 84.1238 34.6726C84.1238 31.3861 81.5676 29.0019 78.4318 29.0019ZM90.8488 38.1094C89.1312 38.1094 87.6485 36.6917 87.6485 34.6726C87.6485 32.632 89.1313 31.2362 90.8488 31.2362C92.5676 31.2362 94.0493 32.632 94.0493 34.6726C94.0493 36.6917 92.5676 38.1094 90.8488 38.1094ZM90.8488 29.0019C87.713 29.0019 85.1573 31.3861 85.1573 34.6726C85.1573 37.9376 87.713 40.3433 90.8488 40.3433C93.9858 40.3433 96.5415 37.9376 96.5415 34.6726C96.5415 31.3861 93.9858 29.0019 90.8488 29.0019Z" fill="white" />
  <path d="M27.622 25.899L13.428 40.965C13.4285 40.9681 13.4296 40.9707 13.4301 40.9739C13.8654 42.6099 15.3597 43.8145 17.1331 43.8145C17.842 43.8145 18.5076 43.6228 19.0784 43.2864L19.1237 43.2598L35.1017 34.0398L27.622 25.899Z" fill="#EB3131" />
  <path d="M41.9831 23.334L41.9695 23.3247L35.0713 19.3257L27.2996 26.2413L35.0983 34.039L41.9601 30.0798C43.1631 29.4303 43.9798 28.1621 43.9798 26.6996C43.9798 25.2476 43.1742 23.9856 41.9831 23.334Z" fill="#F6B60B" />
  <path d="M13.4261 12.37C13.3407 12.6847 13.2959 13.0142 13.2959 13.3565V39.9795C13.2959 40.3211 13.3402 40.6518 13.4266 40.9654L28.1106 26.2844L13.4261 12.37Z" fill="#5778C5" />
  <path d="M27.727 26.668L35.0743 19.3229L19.1143 10.0695C18.5342 9.72201 17.8571 9.52148 17.1326 9.52148C15.3592 9.52148 13.8629 10.7283 13.4275 12.3662C13.427 12.3678 13.427 12.3689 13.427 12.3703L27.727 26.668Z" fill="#3BAD49" />
  <path d="M63.193 14.042H59.3035V15.0045H62.2181C62.1389 15.79 61.8263 16.4066 61.2993 16.8545C60.7722 17.3025 60.0993 17.5275 59.3035 17.5275C58.4306 17.5275 57.691 17.2233 57.0849 16.6192C56.491 16.0026 56.189 15.24 56.189 14.3213C56.189 13.4027 56.491 12.6401 57.0849 12.0235C57.691 11.4194 58.4306 11.1173 59.3035 11.1173C59.7515 11.1173 60.1785 11.1943 60.5701 11.3631C60.9618 11.5318 61.2763 11.7673 61.5222 12.0694L62.2618 11.3298C61.9263 10.9485 61.5014 10.6569 60.9742 10.4444C60.4471 10.2318 59.8972 10.1298 59.3034 10.1298C58.1389 10.1298 57.1515 10.534 56.3452 11.3402C55.5389 12.1485 55.1348 13.1443 55.1348 14.3213C55.1348 15.4983 55.5389 16.4963 56.3452 17.3026C57.1514 18.1087 58.1389 18.513 59.3034 18.513C60.5263 18.513 61.5013 18.1213 62.2513 17.3254C62.9116 16.6631 63.2491 15.7672 63.2491 14.6464C63.2491 14.4568 63.2263 14.2546 63.193 14.042ZM64.6998 10.3088V18.3337H69.385V17.3483H65.731V14.8026H69.0268V13.8401H65.731V11.2964H69.385V10.3088L64.6998 10.3088ZM75.9548 11.2964V10.3088H70.4403V11.2964H72.682V18.3337H73.7132V11.2964H75.9548ZM80.9473 10.3088H79.9161V18.3337H80.9473V10.3088ZM87.7539 11.2964V10.3088H82.2395V11.2964H84.481V18.3337H85.5122V11.2964H87.7539ZM98.1599 11.3527C97.364 10.5339 96.3891 10.1298 95.2245 10.1298C94.0579 10.1298 93.083 10.5339 92.2871 11.3402C91.4912 12.136 91.0997 13.1339 91.0997 14.3213C91.0997 15.5087 91.4912 16.5067 92.2871 17.3026C93.0829 18.1087 94.0579 18.513 95.2245 18.513C96.3786 18.513 97.364 18.1087 98.1599 17.3026C98.9557 16.5067 99.3473 15.5088 99.3473 14.3213C99.3473 13.1443 98.9557 12.1484 98.1599 11.3527ZM93.0267 12.0234C93.6204 11.4193 94.3496 11.1172 95.2245 11.1172C96.0974 11.1172 96.8266 11.4193 97.4099 12.0234C98.0036 12.6172 98.2952 13.392 98.2952 14.3212C98.2952 15.2526 98.0036 16.0253 97.4099 16.6191C96.8265 17.2233 96.0974 17.5274 95.2245 17.5274C94.3495 17.5274 93.6204 17.2233 93.0267 16.6191C92.4453 16.0129 92.1537 15.2525 92.1537 14.3212C92.1537 13.3921 92.4453 12.6296 93.0267 12.0234ZM101.797 13.3359L101.754 11.7879H101.797L105.876 18.3336H106.953V10.3087H105.922V15.0044L105.966 16.5524H105.922L102.022 10.3087H100.766V18.3336H101.797V13.3359Z" fill="white" stroke="white" stroke-width="0.26666" stroke-miterlimit="10" />
</svg>